<svg width="64" height="64" viewBox="0 0 64 64" fill="none" xmlns="http://www.w3.org/2000/svg">
<rect width="64" height="64" rx="32" fill="white"/>
<g clip-path="url(#clip0_784_53)">
<path d="M33.0025 12C32.9009 12.9555 32.8247 13.8859 32.774 14.7911C32.7486 15.6712 32.7359 16.3501 32.7359 16.8279C32.7359 17.4314 32.7486 17.9972 32.774 18.5252C32.7993 19.0533 32.8247 19.5185 32.8501 19.9208H31.9743C31.7965 18.1606 31.5554 16.7776 31.2507 15.7718C30.9461 14.7408 30.4129 13.9991 29.6513 13.5464C28.8897 13.0938 27.7092 12.8675 26.1098 12.8675H23.7107C22.8475 12.8675 22.1874 12.9429 21.7305 13.0938C21.2989 13.2195 21.0069 13.5087 20.8546 13.9613C20.7023 14.3888 20.6261 15.0677 20.6261 15.9981V34.7063C20.6261 35.6115 20.715 36.2904 20.8927 36.743C21.0958 37.1957 21.4766 37.4974 22.0351 37.6483C22.5936 37.7991 23.406 37.8997 24.4723 37.95V38.7043C23.8122 38.654 22.9745 38.6289 21.9589 38.6289C20.9435 38.6037 19.9153 38.5912 18.8744 38.5912C17.8843 38.5912 16.9576 38.6037 16.0945 38.6289C15.2313 38.6289 14.5331 38.654 14 38.7043V37.95C14.8632 37.8997 15.5106 37.7991 15.9421 37.6483C16.3991 37.4974 16.7038 37.1957 16.8561 36.743C17.0084 36.2904 17.0846 35.6115 17.0846 34.7063V15.9981C17.0846 15.0677 17.0084 14.3888 16.8561 13.9613C16.7038 13.5087 16.3991 13.207 15.9421 13.0561C15.5106 12.8801 14.8632 12.7795 14 12.7544V12C14.9393 12.0251 15.9294 12.0503 16.9703 12.0754C18.0112 12.0754 19.0394 12.088 20.0549 12.1132C21.0704 12.1132 22.0097 12.1132 22.8729 12.1132C23.7615 12.1132 24.485 12.1132 25.0435 12.1132C26.2113 12.1132 27.5315 12.1132 29.0039 12.1132C30.5018 12.088 31.8347 12.0503 33.0025 12ZM27.0999 25.2768C27.0999 25.2768 27.0999 25.4024 27.0999 25.6539C27.0999 25.9054 27.0999 26.0311 27.0999 26.0311H19.4837C19.4837 26.0311 19.4837 25.9054 19.4837 25.6539C19.4837 25.4024 19.4837 25.2768 19.4837 25.2768H27.0999Z" fill="#5C684F"/>
<path d="M48.5148 25.2686V26.023C47.7277 26.1235 46.9661 26.375 46.2299 26.7773C45.4937 27.1797 44.7575 27.846 44.0212 28.7763L36.6715 38.0927L37.5093 36.2445L46.6488 48.9177C47.0804 49.5464 47.5501 50.0367 48.0578 50.3888C48.5655 50.7408 49.2129 51.0174 49.9999 51.2186V51.9729C49.3907 51.9227 48.629 51.8975 47.7151 51.8975C46.8265 51.8724 46.0649 51.8598 45.4302 51.8598C44.9987 51.8598 44.4655 51.8724 43.8308 51.8975C43.2215 51.8975 42.4471 51.9227 41.5079 51.9729V51.2186C42.3711 51.1683 42.9169 51.0174 43.1453 50.7659C43.3739 50.5145 43.2849 50.0997 42.8787 49.5213L37.3189 41.2233C36.8112 40.4438 36.3542 39.8654 35.948 39.4883C35.5672 39.0859 35.161 38.8219 34.7294 38.6962C34.3232 38.5705 33.8028 38.495 33.1681 38.4699V37.7155C34.2343 37.6904 35.1229 37.4893 35.8337 37.1121C36.57 36.7098 37.1793 36.2068 37.6617 35.6033L41.3175 31.0017C42.1553 29.9456 42.7265 29.053 43.0311 28.3237C43.3357 27.5945 43.3231 27.0414 42.9931 26.6642C42.6629 26.2618 41.9649 26.0482 40.8985 26.023V25.2686C41.3809 25.2937 41.8759 25.3189 42.3837 25.344C42.8915 25.344 43.3865 25.3566 43.8689 25.3818C44.3767 25.3818 44.8463 25.3818 45.2779 25.3818C45.9379 25.3818 46.5473 25.3692 47.1057 25.344C47.6643 25.3189 48.1339 25.2937 48.5148 25.2686ZM36.405 25.2686V26.023C35.5418 26.0482 34.8817 26.1487 34.4247 26.3247C33.9932 26.4755 33.7012 26.7773 33.5489 27.23C33.3966 27.6574 33.3204 28.3363 33.3204 29.2667V47.9748C33.3204 48.8801 33.3966 49.559 33.5489 50.0116C33.7012 50.4642 33.9932 50.7659 34.4247 50.9168C34.8817 51.0677 35.5418 51.1683 36.405 51.2186V51.9729C35.8211 51.9227 35.0849 51.8975 34.1963 51.8975C33.3331 51.8724 32.4572 51.8598 31.5687 51.8598C30.5786 51.8598 29.6519 51.8724 28.7888 51.8975C27.9256 51.8975 27.2274 51.9227 26.6943 51.9729V51.2186C27.5575 51.1683 28.2048 51.0677 28.6364 50.9168C29.0934 50.7659 29.398 50.4642 29.5504 50.0116C29.7027 49.559 29.7789 48.8801 29.7789 47.9748V29.2667C29.7789 28.3363 29.7027 27.6574 29.5504 27.23C29.398 26.7773 29.0934 26.4755 28.6364 26.3247C28.2048 26.1487 27.5575 26.0482 26.6943 26.023V25.2686C27.2274 25.2937 27.9256 25.3189 28.7888 25.344C29.6519 25.3692 30.5786 25.3818 31.5687 25.3818C32.4572 25.3818 33.3331 25.3692 34.1963 25.344C35.0849 25.3189 35.8211 25.2937 36.405 25.2686Z" fill="#5C684F"/>
</g>
<defs>
<clipPath id="clip0_784_53">
<rect width="36" height="40" fill="white" transform="translate(14 12)"/>
</clipPath>
</defs>
</svg>
